<svg height='100px' width='100px'  fill="#FFFFFF" xmlns="http://www.w3.org/2000/svg" xmlns:cc="http://creativecommons.org/ns#" xmlns:dc="http://purl.org/dc/elements/1.1/" xmlns:osb="http://www.openswatchbook.org/uri/2009/osb" xmlns:rdf="http://www.w3.org/1999/02/22-rdf-syntax-ns#" version="1.1" viewBox="0 0 30 30" x="0px" y="0px"><g shape-rendering="auto"><g fill-rule="evenodd"><path d="m17.703 8.4121-1.0957 0.83984c1.518 1.9834 1.6552 4.7145 0.3418 6.8437-1.3134 2.1293-3.7843 3.1968-6.2031 2.6855-2.4189-0.51126-4.2691-2.494-4.6328-4.9805l-1.3652 0.19922c0.44567 3.047 2.7242 5.4996 5.7109 6.1309 2.9867 0.63129 6.0513-0.69586 7.6641-3.3105 1.6128-2.6147 1.4456-5.9708-0.41992-8.4082z" color="#000000" color-rendering="auto" dominant-baseline="auto" image-rendering="auto" solid-color="#000000" style="font-feature-settings:normal;font-variant-alternates:normal;font-variant-caps:normal;font-variant-ligatures:normal;font-variant-numeric:normal;font-variant-position:normal;isolation:auto;mix-blend-mode:normal;paint-order:stroke markers fill;shape-padding:0;text-decoration-color:#000000;text-decoration-line:none;text-decoration-style:solid;text-indent:0;text-orientation:mixed;text-transform:none;white-space:normal;"></path><path d="m17.574 18.16c-1.2267 0.01377-2.4487 0.31645-3.5449 0.90625-2.1924 1.1796-3.5495 3.3632-3.4863 5.7168l1.3789-0.03711c-0.04836-1.8031 0.97926-3.5069 2.7598-4.4648 1.7805-0.95797 4.0299-0.98481 5.8379-0.06641 1.808 0.9184 2.8848 2.6027 2.8867 4.4062l1.3789-2e-3c-0.0025-2.3543-1.4193-4.5035-3.6426-5.6328-1.1116-0.56466-2.3417-0.83995-3.5684-0.82617z" color="#000000" color-rendering="auto" dominant-baseline="auto" image-rendering="auto" solid-color="#000000" style="font-feature-settings:normal;font-variant-alternates:normal;font-variant-caps:normal;font-variant-ligatures:normal;font-variant-numeric:normal;font-variant-position:normal;isolation:auto;mix-blend-mode:normal;paint-order:stroke markers fill;shape-padding:0;text-decoration-color:#000000;text-decoration-line:none;text-decoration-style:solid;text-indent:0;text-orientation:mixed;text-transform:none;white-space:normal;"></path><path d="m23.41 24.947-0.0332-1.3789c2.2376-0.05532 4.0286-1.4566 4.3418-3.1992 0.31317-1.7426-0.863-3.4652-2.9668-4.084l0.38867-1.3223c2.6568 0.78145 4.3841 3.1545 3.9355 5.6504-0.44855 2.4959-2.869 4.2648-5.666 4.334z" color="#000000" color-rendering="auto" dominant-baseline="auto" image-rendering="auto" solid-color="#000000" style="font-feature-settings:normal;font-variant-alternates:normal;font-variant-caps:normal;font-variant-ligatures:normal;font-variant-numeric:normal;font-variant-position:normal;isolation:auto;mix-blend-mode:normal;paint-order:stroke markers fill;shape-padding:0;text-decoration-color:#000000;text-decoration-line:none;text-decoration-style:solid;text-indent:0;text-orientation:mixed;text-transform:none;white-space:normal;"></path><path d="m27.412 6.3828-0.27654 1.351c-2.4191-0.48776-4.6452 0.72262-5.1548 2.5975-0.50956 1.8749 0.80227 3.9336 3.1627 4.6311l-0.39434 1.3224c-2.9507-0.87196-4.8323-3.6231-4.1012-6.313 0.73107-2.6899 3.7437-4.198 6.7642-3.589z" color="#000000" color-rendering="auto" dominant-baseline="auto" image-rendering="auto" solid-color="#000000" style="font-feature-settings:normal;font-variant-alternates:normal;font-variant-caps:normal;font-variant-ligatures:normal;font-variant-numeric:normal;font-variant-position:normal;isolation:auto;mix-blend-mode:normal;paint-order:stroke markers fill;shape-padding:0;text-decoration-color:#000000;text-decoration-line:none;text-decoration-style:solid;text-indent:0;text-orientation:mixed;text-transform:none;white-space:normal;"></path><path d="m16.248 24.887 1.3789-0.01172c-8e-3 -0.81289 0.39025-1.5546 1-1.9395s1.3271-0.38196 1.9355 0.0059c0.60844 0.38782 1.0054 1.1286 0.99414 1.9414l1.3789 0.01953c0.01753-1.2677-0.58887-2.4608-1.6309-3.125-1.042-0.66416-2.3692-0.66722-3.4141-0.0078-1.0448 0.65941-1.6551 1.8494-1.6426 3.1172z" color="#000000" color-rendering="auto" dominant-baseline="auto" image-rendering="auto" solid-color="#000000" style="font-feature-settings:normal;font-variant-alternates:normal;font-variant-caps:normal;font-variant-ligatures:normal;font-variant-numeric:normal;font-variant-position:normal;isolation:auto;mix-blend-mode:normal;paint-order:stroke markers fill;shape-padding:0;text-decoration-color:#000000;text-decoration-line:none;text-decoration-style:solid;text-indent:0;text-orientation:mixed;text-transform:none;white-space:normal;"></path><path d="m8.0449 24.766 1.3789-0.01367c-0.00239-0.23284 0.11577-0.43996 0.28906-0.54492s0.36805-0.10385 0.54102 2e-3c0.17297 0.1058 0.29242 0.31405 0.28906 0.54688l1.3789 0.01953c0.01018-0.70677-0.34356-1.3749-0.94727-1.7441-0.6037-0.36928-1.3712-0.37054-1.9766-0.0039-0.60533 0.36663-0.96039 1.0315-0.95312 1.7383z" color="#000000" color-rendering="auto" dominant-baseline="auto" image-rendering="auto" solid-color="#000000" style="font-feature-settings:normal;font-variant-alternates:normal;font-variant-caps:normal;font-variant-ligatures:normal;font-variant-numeric:normal;font-variant-position:normal;isolation:auto;mix-blend-mode:normal;paint-order:stroke markers fill;shape-padding:0;text-decoration-color:#000000;text-decoration-line:none;text-decoration-style:solid;text-indent:0;text-orientation:mixed;text-transform:none;white-space:normal;"></path><path d="m13.75 24.883 1.3789-0.01562c-0.0024-0.23284 0.11772-0.43801 0.29102-0.54297s0.36805-0.1058 0.54102 0c0.17297 0.1058 0.29046 0.31405 0.28711 0.54688l1.3789 0.01953c0.01018-0.70677-0.34356-1.3729-0.94726-1.7422-0.6037-0.36928-1.3693-0.37249-1.9746-0.0059-0.60533 0.36663-0.96235 1.0334-0.95508 1.7402z" color="#000000" color-rendering="auto" dominant-baseline="auto" image-rendering="auto" solid-color="#000000" style="font-feature-settings:normal;font-variant-alternates:normal;font-variant-caps:normal;font-variant-ligatures:normal;font-variant-numeric:normal;font-variant-position:normal;isolation:auto;mix-blend-mode:normal;paint-order:stroke markers fill;shape-padding:0;text-decoration-color:#000000;text-decoration-line:none;text-decoration-style:solid;text-indent:0;text-orientation:mixed;text-transform:none;white-space:normal;"></path></g><path d="m18.361 2.6602-8.0449 7.959 0.9707 0.98047 5.4258-5.3672-0.30078 4.0625 1.377 0.10156z" color="#000000" color-rendering="auto" dominant-baseline="auto" image-rendering="auto" solid-color="#000000" style="font-feature-settings:normal;font-variant-alternates:normal;font-variant-caps:normal;font-variant-ligatures:normal;font-variant-numeric:normal;font-variant-position:normal;isolation:auto;mix-blend-mode:normal;shape-padding:0;text-decoration-color:#000000;text-decoration-line:none;text-decoration-style:solid;text-indent:0;text-orientation:mixed;text-transform:none;white-space:normal;"></path><path d="m0.15625 10.154 6.1699 5.4043 0.91016-1.0391-3.3008-2.8906 6.8496 0.16992 0.0332-1.3789z" color="#000000" color-rendering="auto" dominant-baseline="auto" image-rendering="auto" solid-color="#000000" style="font-feature-settings:normal;font-variant-alternates:normal;font-variant-caps:normal;font-variant-ligatures:normal;font-variant-numeric:normal;font-variant-position:normal;isolation:auto;mix-blend-mode:normal;shape-padding:0;text-decoration-color:#000000;text-decoration-line:none;text-decoration-style:solid;text-indent:0;text-orientation:mixed;text-transform:none;white-space:normal;"></path><g fill-rule="evenodd"><path d="m9.7677 16.76c-0.11666 0.24272-0.035454 0.48537 0.064687 0.63185 0.10014 0.14648 0.23406 0.24742 0.39126 0.32211 0.1572 0.07468 0.31856 0.11402 0.49611 0.09946 0.17755-0.01456 0.42023-0.10334 0.53689-0.34606 0.11666-0.24272 0.03369-0.48621-0.06645-0.63269-0.10014-0.14648-0.23145-0.24834-0.38865-0.32303-0.1572-0.07468-0.32117-0.1131-0.49872-0.09854-0.17755 0.01456-0.41846 0.10418-0.53513 0.34689zm0.67567 0.321c0.04265-0.08872 0.08837-0.09028 0.13473-0.10898 0.01461 0.04754 0.04396 0.08436 0.0011 0.17351-0.04314 0.08976-0.09008 0.08976-0.13649 0.10814-0.01466-0.04752-0.04228-0.08336 6.5e-4 -0.17268z" color="#000000" color-rendering="auto" dominant-baseline="auto" image-rendering="auto" solid-color="#000000" style="font-feature-settings:normal;font-variant-alternates:normal;font-variant-caps:normal;font-variant-ligatures:normal;font-variant-numeric:normal;font-variant-position:normal;isolation:auto;mix-blend-mode:normal;paint-order:stroke markers fill;shape-padding:0;text-decoration-color:#000000;text-decoration-line:none;text-decoration-style:solid;text-indent:0;text-orientation:mixed;text-transform:none;white-space:normal;"></path><path d="m15.692 14.194c-0.26318-0.04882-0.47784 0.09085-0.59475 0.22537-0.1169 0.13453-0.18348 0.28936-0.21562 0.46058-0.03214 0.17123-0.02585 0.33759 0.03439 0.50498 0.06025 0.16739 0.20942 0.37655 0.47261 0.42537 0.26318 0.04882 0.47628-0.09312 0.59319-0.22765 0.1169-0.13453 0.18312-0.28744 0.21526-0.45866 0.03214-0.17123 0.02621-0.33951-0.03403-0.5069-0.06025-0.16739-0.20786-0.37427-0.47105-0.4231zm-0.13727 0.73137c0.09959 0.01848 0.11421 0.06604 0.14306 0.106-0.04143 0.02689-0.07207 0.0641-0.17152 0.04565-0.09877-0.01832-0.11433-0.06419-0.14342-0.10408 0.04157-0.02681 0.07296-0.06593 0.17188-0.04758z" color="#000000" color-rendering="auto" dominant-baseline="auto" image-rendering="auto" solid-color="#000000" style="font-feature-settings:normal;font-variant-alternates:normal;font-variant-caps:normal;font-variant-ligatures:normal;font-variant-numeric:normal;font-variant-position:normal;isolation:auto;mix-blend-mode:normal;paint-order:stroke markers fill;shape-padding:0;text-decoration-color:#000000;text-decoration-line:none;text-decoration-style:solid;text-indent:0;text-orientation:mixed;text-transform:none;white-space:normal;"></path><path d="m9.6031 11.761 0.29028 0.34539 1.7203 2.0469 0.96913-1.0324-2.0106-2.3923z" color="#000000" color-rendering="auto" dominant-baseline="auto" image-rendering="auto" solid-color="#000000" style="font-feature-settings:normal;font-variant-alternates:normal;font-variant-caps:normal;font-variant-ligatures:normal;font-variant-numeric:normal;font-variant-position:normal;isolation:auto;mix-blend-mode:normal;paint-order:stroke markers fill;shape-padding:0;text-decoration-color:#000000;text-decoration-line:none;text-decoration-style:solid;text-indent:0;text-orientation:mixed;text-transform:none;white-space:normal;"></path><path d="m10.918 10.467 0.29154 0.34688 1.7203 2.0469 0.96913-1.0324-2.0119-2.3938z" color="#000000" color-rendering="auto" dominant-baseline="auto" image-rendering="auto" solid-color="#000000" style="font-feature-settings:normal;font-variant-alternates:normal;font-variant-caps:normal;font-variant-ligatures:normal;font-variant-numeric:normal;font-variant-position:normal;isolation:auto;mix-blend-mode:normal;paint-order:stroke markers fill;shape-padding:0;text-decoration-color:#000000;text-decoration-line:none;text-decoration-style:solid;text-indent:0;text-orientation:mixed;text-transform:none;white-space:normal;"></path></g></g></svg>